# xmcd CD database file
#
# Track frame offsets:
#	150
#	26230
#	43700
#	62375
#	85058
#	104893
#	130123
#	145788
#	152002
#	171988
#	192858
#	216335
#	232815
#	245070
#
# Disc length: 3538 seconds
#
# Revision: 1
# Processed by: cddbd v1.5.2PL0 Copyright (c) Steve Scherf et al.
# Submitted via: CDex 1.70beta2
#
DISCID=c40dd00e
DTITLE=Jazzin'park - We are together
DYEAR=2007
DGENRE=Jazz
TTITLE0=Shine
TTITLE1=You Are
TTITLE2=オトノハ
TTITLE3=Lonely
TTITLE4=Summer Love
TTITLE5=Long Time Ago feat.Stephanie Cooke remix
TTITLE6=Troubled Hands
TTITLE7=Hands-on
TTITLE8=Kahemi Bossa
TTITLE9=キミスム街ヘ
TTITLE10=Prism
TTITLE11=Dream Bird
TTITLE12=Over
TTITLE13=Perfect Blue
EXTD=YEAR: 2007
EXTT0=
EXTT1=
EXTT2=
EXTT3=
EXTT4=
EXTT5=
EXTT6=
EXTT7=
EXTT8=
EXTT9=
EXTT10=
EXTT11=
EXTT12=
EXTT13=
PLAYORDER=
